<svg width="38" height="38" viewBox="0 0 38 38" fill="none" xmlns="http://www.w3.org/2000/svg">
<path d="M19 38C29.4928 38 38 29.4928 38 19C38 8.50725 29.4928 0 19 0C8.50725 0 0 8.50725 0 19C0 29.4928 8.50725 38 19 38ZM21.375 21.375C21.375 22.0049 21.1248 22.609 20.6794 23.0544C20.234 23.4998 19.6299 23.75 19 23.75C18.3701 23.75 17.766 23.4998 17.3206 23.0544C16.8752 22.609 16.625 22.0049 16.625 21.375V9.5C16.625 8.87011 16.8752 8.26602 17.3206 7.82062C17.766 7.37522 18.3701 7.125 19 7.125C19.6299 7.125 20.234 7.37522 20.6794 7.82062C21.1248 8.26602 21.375 8.87011 21.375 9.5V21.375ZM19 26.087C19.312 26.0871 19.6209 26.1486 19.9091 26.2681C20.1972 26.3875 20.4591 26.5626 20.6796 26.7832C20.9002 27.0039 21.0751 27.2658 21.1944 27.554C21.3137 27.8423 21.3751 28.1512 21.375 28.4632C21.3749 28.7752 21.3134 29.0841 21.1939 29.3722C21.0745 29.6604 20.8994 29.9223 20.6788 30.1428C20.4581 30.3634 20.1962 30.5383 19.908 30.6576C19.6197 30.7769 19.3108 30.8383 18.9988 30.8382C18.3688 30.838 17.7646 30.5876 17.3192 30.142C16.8738 29.6964 16.6237 29.092 16.6238 28.462C16.624 27.832 16.8744 27.2278 17.32 26.7824C17.7656 26.337 18.37 26.0868 19 26.087Z" fill="#EA4335"/>
</svg>
