<svg width="18" height="11" viewBox="0 0 18 11" fill="none" xmlns="http://www.w3.org/2000/svg">
<path d="M17.4949 0.512074C17.175 0.184094 16.7422 0 16.2911 0C15.84 0 15.4072 0.184094 15.0873 0.512074L8.95731 6.74587L2.91269 0.512074C2.59276 0.184094 2.15999 0 1.70888 0C1.25778 0 0.825007 0.184094 0.505082 0.512074C0.345039 0.675778 0.218008 0.870542 0.13132 1.08513C0.0446312 1.29972 0 1.52989 0 1.76236C0 1.99482 0.0446312 2.22499 0.13132 2.43958C0.218008 2.65417 0.345039 2.84893 0.505082 3.01264L7.74497 10.4791C7.90371 10.6442 8.09256 10.7752 8.30064 10.8646C8.50871 10.954 8.7319 11 8.95731 11C9.18272 11 9.40591 10.954 9.61398 10.8646C9.82206 10.7752 10.0109 10.6442 10.1697 10.4791L17.4949 3.01264C17.655 2.84893 17.782 2.65417 17.8687 2.43958C17.9554 2.22499 18 1.99482 18 1.76236C18 1.52989 17.9554 1.29972 17.8687 1.08513C17.782 0.870542 17.655 0.675778 17.4949 0.512074Z" fill="black"/>
</svg>
