<svg width="235" height="68" viewBox="0 0 235 68" fill="none" xmlns="http://www.w3.org/2000/svg">
<path d="M10.192 55.944C10.0053 55.944 9.83733 55.888 9.688 55.776C9.576 55.6267 9.52 55.4587 9.52 55.272V39.984L9.464 39.648L1.68 17.584C1.64267 17.5093 1.624 17.416 1.624 17.304C1.624 16.968 1.82933 16.8 2.24 16.8H7.616C8.02667 16.8 8.288 16.9867 8.4 17.36L12.6 31.752C12.6373 31.864 12.6933 31.92 12.768 31.92C12.8427 31.92 12.8987 31.864 12.936 31.752L17.136 17.36C17.248 16.9867 17.5093 16.8 17.92 16.8H23.296C23.52 16.8 23.688 16.8747 23.8 17.024C23.912 17.136 23.9307 17.3227 23.856 17.584L16.072 39.648L16.016 39.984V55.272C16.016 55.4587 15.9413 55.6267 15.792 55.776C15.68 55.888 15.5307 55.944 15.344 55.944H10.192ZM40.2819 56.448C37.1833 56.448 34.7379 55.6267 32.9459 53.984C31.1913 52.3413 30.3139 50.12 30.3139 47.32V36.064C30.3139 33.3013 31.2099 31.0987 33.0019 29.456C34.7939 27.776 37.2206 26.936 40.2819 26.936C43.3806 26.936 45.8259 27.776 47.6179 29.456C49.4099 31.0987 50.3059 33.3013 50.3059 36.064V47.32C50.3059 50.12 49.4099 52.3413 47.6179 53.984C45.8633 55.6267 43.4179 56.448 40.2819 56.448ZM40.2819 50.792C41.3273 50.792 42.1673 50.4373 42.8019 49.728C43.4739 48.9813 43.8099 48.0107 43.8099 46.816V36.512C43.8099 35.3547 43.4739 34.4027 42.8019 33.656C42.1673 32.9093 41.3273 32.536 40.2819 32.536C39.2366 32.536 38.3966 32.9093 37.7619 33.656C37.1273 34.3653 36.8099 35.3173 36.8099 36.512V46.816C36.8099 48.0107 37.1273 48.9813 37.7619 49.728C38.3966 50.4373 39.2366 50.792 40.2819 50.792ZM73.4698 28.056C73.4698 27.8693 73.5258 27.72 73.6378 27.608C73.7871 27.4587 73.9551 27.384 74.1418 27.384H79.2938C79.4805 27.384 79.6298 27.4587 79.7418 27.608C79.8911 27.72 79.9658 27.8693 79.9658 28.056V55.328C79.9658 55.5147 79.8911 55.6827 79.7418 55.832C79.6298 55.944 79.4805 56 79.2938 56H74.1418C73.9551 56 73.7871 55.944 73.6378 55.832C73.5258 55.6827 73.4698 55.5147 73.4698 55.328V54.096C73.4698 53.984 73.4325 53.9093 73.3578 53.872C73.2831 53.8347 73.2085 53.872 73.1338 53.984C72.0511 55.5893 70.3151 56.392 67.9258 56.392C65.6485 56.392 63.8005 55.72 62.3818 54.376C61.0005 52.9947 60.3098 50.8853 60.3098 48.048V28.056C60.3098 27.8693 60.3658 27.72 60.4778 27.608C60.6271 27.4587 60.7951 27.384 60.9818 27.384H66.1338C66.3205 27.384 66.4698 27.4587 66.5818 27.608C66.7311 27.72 66.8058 27.8693 66.8058 28.056V46.648C66.8058 49.448 67.8885 50.848 70.0538 50.848C71.1365 50.848 71.9765 50.456 72.5738 49.672C73.1711 48.8507 73.4698 47.7493 73.4698 46.368V28.056ZM102.393 27.048C103.401 27.048 104.185 27.2347 104.745 27.608C105.043 27.7947 105.155 28.0747 105.081 28.448L104.185 33.656C104.147 34.104 103.886 34.2347 103.401 34.048C102.878 33.8987 102.393 33.824 101.945 33.824C101.497 33.824 101.086 33.88 100.713 33.992C99.6672 34.1413 98.8085 34.7387 98.1365 35.784C97.5018 36.792 97.1845 38.0053 97.1845 39.424V55.272C97.1845 55.4587 97.1098 55.6267 96.9605 55.776C96.8485 55.888 96.6992 55.944 96.5125 55.944H91.3605C91.1738 55.944 91.0058 55.888 90.8565 55.776C90.7445 55.6267 90.6885 55.4587 90.6885 55.272V28.056C90.6885 27.8693 90.7445 27.72 90.8565 27.608C91.0058 27.4587 91.1738 27.384 91.3605 27.384H96.5125C96.6992 27.384 96.8485 27.4587 96.9605 27.608C97.1098 27.72 97.1845 27.8693 97.1845 28.056V30.632C97.1845 30.7813 97.2218 30.8747 97.2965 30.912C97.3712 30.912 97.4272 30.8373 97.4645 30.688C98.4725 28.2613 100.115 27.048 102.393 27.048ZM133.062 56C132.689 56 132.502 55.8133 132.502 55.44V17.36C132.502 16.9867 132.689 16.8 133.062 16.8H134.91C135.283 16.8 135.47 16.9867 135.47 17.36V53.144C135.47 53.2933 135.545 53.368 135.694 53.368H148.798C149.171 53.368 149.358 53.5547 149.358 53.928V55.44C149.358 55.8133 149.171 56 148.798 56H133.062ZM166.757 56.448C164.256 56.448 162.24 55.6827 160.709 54.152C159.216 52.584 158.469 50.5493 158.469 48.048V35.728C158.469 33.264 159.234 31.248 160.765 29.68C162.296 28.112 164.293 27.328 166.757 27.328C169.296 27.328 171.33 28.112 172.861 29.68C174.392 31.2107 175.157 33.2267 175.157 35.728V48.048C175.157 50.5493 174.392 52.584 172.861 54.152C171.33 55.6827 169.296 56.448 166.757 56.448ZM166.757 53.816C168.362 53.816 169.669 53.2747 170.677 52.192C171.685 51.072 172.189 49.6533 172.189 47.936V35.896C172.189 34.1413 171.685 32.7227 170.677 31.64C169.669 30.52 168.362 29.96 166.757 29.96C165.189 29.96 163.901 30.52 162.893 31.64C161.922 32.7227 161.437 34.1413 161.437 35.896V47.936C161.437 49.6533 161.922 51.072 162.893 52.192C163.901 53.2747 165.189 53.816 166.757 53.816ZM200.426 28.336C200.426 27.9627 200.612 27.776 200.986 27.776H202.89C203.263 27.776 203.45 27.9627 203.45 28.336V55.664C203.45 59.5093 202.572 62.44 200.818 64.456C199.063 66.472 196.244 67.4053 192.362 67.256C191.988 67.256 191.802 67.0693 191.802 66.696V65.184C191.802 64.8107 192.044 64.624 192.53 64.624C195.367 64.624 197.383 63.8587 198.578 62.328C199.81 60.7973 200.426 58.5013 200.426 55.44V53.312C200.426 53.2 200.388 53.144 200.314 53.144C200.239 53.1067 200.183 53.144 200.146 53.256C199.511 54.264 198.69 55.0293 197.682 55.552C196.711 56.0373 195.628 56.28 194.434 56.28C192.119 56.28 190.271 55.5147 188.89 53.984C187.546 52.416 186.874 50.3813 186.874 47.88V35.728C186.874 33.2267 187.546 31.2107 188.89 29.68C190.271 28.112 192.119 27.328 194.434 27.328C195.628 27.328 196.73 27.5893 197.738 28.112C198.746 28.6347 199.548 29.3813 200.146 30.352C200.22 30.4267 200.276 30.464 200.314 30.464C200.388 30.464 200.426 30.408 200.426 30.296V28.336ZM195.218 53.648C196.748 53.648 197.999 53.1067 198.97 52.024C199.94 50.9413 200.426 49.5227 200.426 47.768V35.896C200.426 34.1413 199.94 32.7227 198.97 31.64C197.999 30.52 196.748 29.96 195.218 29.96C193.65 29.96 192.362 30.52 191.354 31.64C190.346 32.7227 189.842 34.1413 189.842 35.896V47.768C189.842 49.4853 190.346 50.904 191.354 52.024C192.362 53.1067 193.65 53.648 195.218 53.648ZM223.512 56.448C221.01 56.448 218.994 55.6827 217.464 54.152C215.97 52.584 215.224 50.5493 215.224 48.048V35.728C215.224 33.264 215.989 31.248 217.52 29.68C219.05 28.112 221.048 27.328 223.512 27.328C226.05 27.328 228.085 28.112 229.616 29.68C231.146 31.2107 231.912 33.2267 231.912 35.728V48.048C231.912 50.5493 231.146 52.584 229.616 54.152C228.085 55.6827 226.05 56.448 223.512 56.448ZM223.512 53.816C225.117 53.816 226.424 53.2747 227.432 52.192C228.44 51.072 228.944 49.6533 228.944 47.936V35.896C228.944 34.1413 228.44 32.7227 227.432 31.64C226.424 30.52 225.117 29.96 223.512 29.96C221.944 29.96 220.656 30.52 219.648 31.64C218.677 32.7227 218.192 34.1413 218.192 35.896V47.936C218.192 49.6533 218.677 51.072 219.648 52.192C220.656 53.2747 221.944 53.816 223.512 53.816Z" fill="white"/>
<path d="M9.5 47.9H16V55.9H9.5V47.9Z" fill="#CC2029"/>
</svg>
