<svg width="38" height="24" viewBox="0 0 38 24" fill="none" xmlns="http://www.w3.org/2000/svg">
<path d="M27.2132 0.456375C27.0067 0.292854 26.7698 0.171855 26.5163 0.100362C26.2627 0.0288676 25.9975 0.00829399 25.736 0.0398275C25.4744 0.0713611 25.2217 0.154378 24.9924 0.284087C24.7631 0.413796 24.5618 0.587629 24.4 0.795555L10.4338 18.7521L3.59037 10.4123C3.42985 10.1986 3.22803 10.0194 2.9969 9.88519C2.76578 9.75101 2.51005 9.66463 2.24489 9.63118C1.97974 9.59773 1.71057 9.61789 1.45336 9.69046C1.19615 9.76304 0.956142 9.88655 0.747582 10.0537C0.539023 10.2208 0.366163 10.4281 0.239263 10.6633C0.112364 10.8985 0.0340115 11.1568 0.00885722 11.4229C-0.0162971 11.6889 0.0122596 11.9573 0.0928316 12.2122C0.173404 12.467 0.304349 12.703 0.477895 12.9063L8.79777 23.2413C8.98555 23.4727 9.22281 23.6592 9.49212 23.787C9.76143 23.9147 10.0559 23.9805 10.354 23.9795C10.6704 23.9936 10.9856 23.9322 11.2736 23.8004C11.5615 23.6685 11.814 23.47 12.01 23.2213L27.6322 3.26957C27.7915 3.05813 27.9071 2.81712 27.9723 2.56056C28.0375 2.304 28.051 2.03703 28.012 1.77521C27.973 1.51338 27.8823 1.26193 27.7452 1.03551C27.608 0.809091 27.4272 0.612222 27.2132 0.456375ZM37.1891 0.456375C36.9826 0.292854 36.7457 0.171855 36.4921 0.100362C36.2386 0.0288676 35.9734 0.00829399 35.7118 0.0398275C35.4503 0.0713611 35.1976 0.154378 34.9683 0.284087C34.739 0.413796 34.5377 0.587629 34.3759 0.795555L20.4097 18.7521L19.1926 17.2557L16.6787 20.4879L18.8734 23.2213C19.0612 23.4528 19.2984 23.6393 19.5678 23.767C19.8371 23.8948 20.1316 23.9605 20.4296 23.9595C20.7293 23.9581 21.0248 23.8893 21.2943 23.758C21.5637 23.6268 21.8001 23.4365 21.9859 23.2014L37.6081 3.24962C37.7642 3.0388 37.8773 2.79925 37.9408 2.54469C38.0042 2.29013 38.0168 2.02555 37.9779 1.7661C37.939 1.50664 37.8493 1.25742 37.7139 1.03268C37.5786 0.807936 37.4002 0.612099 37.1891 0.456375Z" fill="#FBBC05"/>
</svg>
